<mxfile host="app.diagrams.net" modified="2024-01-22T03:42:31.001Z" agent="Mozilla/5.0 (Windows NT 10.0; Win64; x64) AppleWebKit/537.36 (KHTML, like Gecko) Chrome/120.0.0.0 Safari/537.36" version="22.1.21" etag="v1D6Vm1juZoeGDP7axDs" type="github">
  <diagram name="第 1 页" id="ISfDw64nk_qf1rq28ddD">
    <mxGraphModel>
      <root>
        <mxCell id="0" />
        <mxCell id="1" parent="0" />
      </root>
    </mxGraphModel>
  </diagram>
</mxfile>
